{
  "accessors": [
    {
      "bufferView": 2,
      "componentType": 5126,
      "count": 1659,
      "max": [
        0.33308371901512146,
        3.0000417232513428,
        0.33308357000350952
      ],
      "min": [
        -0.33308348059654236,
        1.7462013959884644,
        -0.33308359980583191
      ],
      "type": "VEC3"
    },
    {
      "bufferView": 2,
      "byteOffset": 19908,
      "componentType": 5126,
      "count": 1659,
      "max": [
        1,
        1,
        1
      ],
      "min": [
        -1,
        -1,
        -1
      ],
      "type": "VEC3"
    },
    {
      "bufferView": 3,
      "componentType": 5126,
      "count": 1659,
      "max": [
        1,
        1,
        1,
        1
      ],
      "min": [
        -1,
        -1,
        -1,
        1
      ],
      "type": "VEC4"
    },
    {
      "bufferView": 1,
      "componentType": 5126,
      "count": 1659,
      "max": [
        0.99141919612884521,
        0.97914904356002808
      ],
      "min": [
        0.0045616002753376961,
        0.018383843824267387
      ],
      "type": "VEC2"
    },
    {
      "bufferView": 1,
      "byteOffset": 13272,
      "componentType": 5126,
      "count": 1659,
      "max": [
        0.99141919612884521,
        0.97914904356002808
      ],
      "min": [
        0.0045616002753376961,
        0.018383843824267387
      ],
      "type": "VEC2"
    },
    {
      "bufferView": 1,
      "byteOffset": 26544,
      "componentType": 5126,
      "count": 1659,
      "max": [
        0.99141919612884521,
        0.97914904356002808
      ],
      "min": [
        0.0045616002753376961,
        0.018383843824267387
      ],
      "type": "VEC2"
    },
    {
      "bufferView": 1,
      "byteOffset": 39816,
      "componentType": 5126,
      "count": 1659,
      "max": [
        0.99141919612884521,
        0.97914904356002808
      ],
      "min": [
        0.0045616002753376961,
        0.018383843824267387
      ],
      "type": "VEC2"
    },
    {
      "bufferView": 1,
      "byteOffset": 53088,
      "componentType": 5126,
      "count": 1659,
      "max": [
        0.99141919612884521,
        0.97914904356002808
      ],
      "min": [
        0.0045616002753376961,
        0.018383843824267387
      ],
      "type": "VEC2"
    },
    {
      "bufferView": 1,
      "byteOffset": 66360,
      "componentType": 5126,
      "count": 1659,
      "max": [
        0.99141919612884521,
        0.97914904356002808
      ],
      "min": [
        0.0045616002753376961,
        0.018383843824267387
      ],
      "type": "VEC2"
    },
    {
      "bufferView": 0,
      "componentType": 5125,
      "count": 5688,
      "max": [
        1658
      ],
      "min": [
        0
      ],
      "type": "SCALAR"
    }
  ],
  "asset": {
    "extras": {
      "author": "chris_models (https://sketchfab.com/chris_models)",
      "license": "CC-BY-4.0 (http://creativecommons.org/licenses/by/4.0/)",
      "source": "https://sketchfab.com/3d-models/lamp-02-lowpoly-0f5519beb6644e5ea714055382c20d5f",
      "title": "Lamp_02 lowpoly"
    },
    "generator": "Sketchfab-4.57.0",
    "version": "2.0"
  },
  "bufferViews": [
    {
      "buffer": 0,
      "byteLength": 22752,
      "byteOffset": 0,
      "name": "floatBufferViews",
      "target": 34963
    },
    {
      "buffer": 0,
      "byteLength": 79632,
      "byteOffset": 22752,
      "byteStride": 8,
      "name": "floatBufferViews",
      "target": 34962
    },
    {
      "buffer": 0,
      "byteLength": 39816,
      "byteOffset": 102384,
      "byteStride": 12,
      "name": "floatBufferViews",
      "target": 34962
    },
    {
      "buffer": 0,
      "byteLength": 26544,
      "byteOffset": 142200,
      "byteStride": 16,
      "name": "floatBufferViews",
      "target": 34962
    }
  ],
  "buffers": [
    {
      "byteLength": 168744,
      "uri": "scene.bin"
    }
  ],
  "images": [
    {
      "uri": "textures/re_lamp_02_metallicRoughness.png"
    },
    {
      "uri": "textures/re_lamp_02_baseColor.jpeg"
    },
    {
      "uri": "textures/re_lamp_02_emissive.jpeg"
    },
    {
      "uri": "textures/re_lamp_02_normal.jpeg"
    }
  ],
  "materials": [
    {
      "doubleSided": false,
      "emissiveFactor": [
        1,
        1,
        1
      ],
      "emissiveTexture": {
        "index": 2,
        "texCoord": 0
      },
      "name": "re_lamp_02",
      "normalTexture": {
        "index": 3,
        "scale": 1,
        "texCoord": 0
      },
      "occlusionTexture": {
        "index": 0,
        "strength": 1,
        "texCoord": 0
      },
      "pbrMetallicRoughness": {
        "baseColorFactor": [
          1,
          1,
          1,
          1
        ],
        "baseColorTexture": {
          "index": 1,
          "texCoord": 0
        },
        "metallicFactor": 0.77000762199999995,
        "metallicRoughnessTexture": {
          "index": 0,
          "texCoord": 0
        },
        "roughnessFactor": 0.87366615849999996
      }
    }
  ],
  "meshes": [
    {
      "primitives": [
        {
          "attributes": {
            "NORMAL": 1,
            "POSITION": 0,
            "TANGENT": 2,
            "TEXCOORD_0": 3,
            "TEXCOORD_1": 4,
            "TEXCOORD_2": 5,
            "TEXCOORD_3": 6,
            "TEXCOORD_4": 7,
            "TEXCOORD_5": 8
          },
          "indices": 9,
          "material": 0,
          "mode": 4
        }
      ]
    }
  ],
  "nodes": [
    {
      "children": [
        1
      ],
      "name": "RootNode (gltf orientation matrix)",
      "rotation": [
        -0.70710678118654746,
        -0,
        -0,
        0.70710678118654757
      ]
    },
    {
      "children": [
        2
      ],
      "name": "RootNode (model correction matrix)"
    },
    {
      "children": [
        3
      ],
      "name": "root"
    },
    {
      "children": [
        4
      ],
      "matrix": [
        1,
        0,
        0,
        0,
        0,
        2.2204460492503131e-16,
        1,
        0,
        0,
        -1,
        2.2204460492503131e-16,
        0,
        0,
        0,
        0,
        1
      ],
      "name": "GLTF_SceneRootNode"
    },
    {
      "children": [
        5
      ],
      "matrix": [
        1,
        0,
        0,
        0,
        0,
        0.999999999999999,
        -4.3711388286737909e-08,
        0,
        0,
        4.3711388286737909e-08,
        0.999999999999999,
        0,
        0,
        0.090000003576278687,
        -0.23999999463558197,
        1
      ],
      "name": "re_lamp_02_0"
    },
    {
      "mesh": 0,
      "name": ""
    }
  ],
  "samplers": [
    {
      "magFilter": 9729,
      "minFilter": 9729,
      "wrapS": 10497,
      "wrapT": 10497
    }
  ],
  "scene": 0,
  "scenes": [
    {
      "name": "OSG_Scene",
      "nodes": [
        0
      ]
    }
  ],
  "textures": [
    {
      "sampler": 0,
      "source": 0
    },
    {
      "sampler": 0,
      "source": 1
    },
    {
      "sampler": 0,
      "source": 2
    },
    {
      "sampler": 0,
      "source": 3
    }
  ]
}

