{
 "accessors": [
  {
   "componentType": 5126,
   "type": "VEC3",
   "count": 16840,
   "max": [
    0.2853820025920868,
    1.0825730562210083,
    0.32851800322532654
   ],
   "min": [
    -0.39657801389694214,
    -0.0010730000212788582,
    -0.3261609971523285
   ],
   "bufferView": 0
  },
  {
   "componentType": 5126,
   "type": "VEC3",
   "count": 16840,
   "bufferView": 1
  },
  {
   "componentType": 5126,
   "type": "VEC2",
   "count": 16840,
   "bufferView": 2
  },
  {
   "componentType": 5123,
   "type": "SCALAR",
   "count": 25428,
   "bufferView": 3
  }
 ],
 "asset": {
  "version": "2.0",
  "generator": "clara.io"
 },
 "bufferViews": [
  {
   "buffer": 0,
   "byteOffset": 0,
   "byteLength": 202080,
   "target": 34962,
   "byteStride": 12
  },
  {
   "buffer": 0,
   "byteOffset": 202080,
   "byteLength": 202080,
   "target": 34962,
   "byteStride": 12
  },
  {
   "buffer": 0,
   "byteOffset": 404160,
   "byteLength": 134720,
   "target": 34962,
   "byteStride": 8
  },
  {
   "buffer": 0,
   "byteOffset": 538880,
   "byteLength": 50856,
   "target": 34963
  }
 ],
 "buffers": [
  {
   "byteLength": 589736,
   "uri": "data:application/octet-stream;base64,"
  }
 ],
 "materials": [
  {
   "name": "defaultMat",
   "pbrMetallicRoughness": {
    "baseColorFactor": [
     0.8,
     0.8,
     0.8,
     1
    ],
    "roughnessFactor": 0.3015,
    "metallicFactor": 0
   }
  }
 ],
 "meshes": [
  {
   "primitives": [
    {
     "indices": 3,
     "material": 0,
     "mode": 4,
     "attributes": {
      "POSITION": 0,
      "NORMAL": 1,
      "TEXCOORD_0": 2
     }
    }
   ]
  }
 ],
 "nodes": [
  {
   "name": "seat_root",
   "scale": [
    0.009999999776482582,
    0.009999999776482582,
    0.009999999776482582
   ],
   "children": [
    1
   ]
  },
  {
   "name": "default",
   "mesh": 0
  }
 ],
 "scene": 0,
 "scenes": [
  {
   "nodes": [
    0
   ]
  }
 ]
}